# xmcd
#
# Track frame offsets: 
#        150
#        12410
#        30111
#        51171
#
# Disc length: 847 seconds
#
# Revision: 0
# Processed by: cddbd v1.5.2PL0 Copyright (c) Steve Scherf et al.
# Submitted via: ExactAudioCopyFreeDBPlugin 1.0
#
DISCID=23034d04
DTITLE=Mayu Gene - Pop
DYEAR=2013
DGENRE=Pop
TTITLE0=We are 女子!
TTITLE1=黒い涙
TTITLE2=My Favorite Shoes (DEMO)
TTITLE3=We are 女子! (Instrumental Version)
EXTD=
EXTT0=
EXTT1=
EXTT2=
EXTT3=
PLAYORDER=
